<?xml version="1.0" encoding="utf-8"?>
<!-- Generator: Adobe Illustrator 22.1.0, SVG Export Plug-In . SVG Version: 6.00 Build 0)  -->
<svg version="1.1" id="Layer_1" xmlns="http://www.w3.org/2000/svg" xmlns:xlink="http://www.w3.org/1999/xlink" x="0px" y="0px"
	 viewBox="0 0 550.8 240" style="enable-background:new 0 0 550.8 240;" xml:space="preserve">
<style type="text/css">
	.st0{fill:#063D5C;}
</style>
<g>
	<path class="st0" d="M34.3,135.9c6,0,11.8,0,18,0c0.2,3.3,1.3,6.1,3.7,8.3c2.4,2,5.3,2.8,8.4,3.4c3.7,0.6,7.1,0,10.5-1.1
		c5.4-1.9,7.3-7.5,4.5-11.7c-1.2-1.8-3.7-3.1-5.9-3.8c-6.9-2.1-14-3.6-21-5.7c-6-1.7-11.8-4.1-14.7-10.3c-3.1-6.8-1.9-13.2,2-19.1
		c4-6,10.5-8.2,17.2-9.3c3-0.5,6.2-1,9.3-0.9c7.5,0.3,15.1,0.9,21.4,5.5c5.5,4,8.9,9.3,9.2,16.5c-6,0-11.6,0-17.4,0
		c-1-7.2-4.9-8.6-11.1-9.5c-3.5-0.4-7.2-0.4-10.5,1.3c-1.9,1-3.1,2.2-3.2,4.6c-0.1,2.8,0.4,5.1,3,6.6c4.6,2.7,9.9,3.3,14.9,4.5
		c6.3,1.6,12.8,2.8,18.5,6.4c5.2,3.4,7.9,8.3,7.9,14.2c-0.1,9.9-5.1,17.6-14.8,21.4c-6.8,2.7-14.1,3.3-21.3,2.7
		c-6.7-0.5-13.2-1.8-18.8-6c-5-3.7-8.8-11.6-9.7-18"/>
	<path class="st0" d="M425.4,178c1.8-4.9,3.1-9.1,5.3-14.6c1.2-4.3,0.3-7-1-10.3c-5-13.1-10-26.2-15-39.3
		c-2.8-7.3-5.7-14.6-8.6-21.9c-0.1-0.3-0.1-0.6-0.2-1.2c2.4,0,4.6-0.1,6.8,0.1c0.4,0,0.9,0.7,1.1,1.2c2.8,7.6,5.7,15.1,8.5,22.7
		c4,10.8,7.9,21.5,12,32.2c0.3,0.6,0.9,1.1,1.4,1.6c0.4-0.5,1-1.1,1.2-1.7c5.9-15.6,11.6-31,17.4-46.6c1-2.7,1.9-5.4,2.9-8.1
		c0.3-0.6,1.1-1.3,1.6-1.4c2-0.2,4-0.1,6.3-0.1c-1.8,4.6-3.4,9.1-5.1,13.5c-3.5,9.1-6.9,18.1-10.3,27.3c-4.5,12-9.1,23.9-13.6,35.9
		c-1.3,3.6-2.4,7.1-3.6,10.7C430.4,178,427.9,178,425.4,178z"/>
	<path class="st0" d="M349.6,157.2c-6.5,0-12.4,0-18.2-0.1c-0.6,0-1.4-0.7-1.7-1.3c-0.5-1.4-0.6-2.9-1-4.4c-0.1-0.5-0.4-1.3-0.7-1.5
		s-1.2,0.3-1.5,0.6c-4.1,3.6-8.4,6.7-13.8,8.1c-8.6,2.3-18.5,0.4-24.5-7.2c-3.1-4-4.2-9-3.7-14c0.4-5.2,2.2-10,6.3-13.7
		c4.2-3.8,9.2-5.3,14.6-6.3c5.9-1.1,11.8-1.7,17.7-2.9c4.2-0.9,5.1-2.7,4.9-7c-0.1-3.2-1.8-5.5-5.3-6c-3.8-0.4-7.7-0.4-11.6-0.2
		c-3.6,0.3-5.7,2.8-6.8,6.1c-0.4,1.6-0.5,3.1-3.3,2.8c-4.6-0.5-9.3-0.2-14.6-0.2c0.9-3,1.4-6.3,2.7-9.2c3.1-7.6,9.4-11.4,17.2-13
		c8-1.7,15.9-1.3,23.7,0.9c7.5,2.1,13.3,6,14.8,14.3c0.4,1.9,0.6,3.7,0.7,5.6c0.1,13.4,0,26.8,0.1,40.2c0,2.5,0.5,4.6,2.9,6
		C348.9,155.2,349,156.1,349.6,157.2z M327.7,124.6c-5.4,1.2-10.5,2.2-15.5,3.5c-2,0.4-3.8,1.1-5.6,2c-3.2,1.6-4.9,5.1-4.4,8.9
		c0.5,4.4,2.1,6.6,6.1,7.6c1.7,0.4,3.6,0.4,5.2,0.3c5.7-0.7,11.8-3.4,13.2-10C327.6,132.6,327.4,128.4,327.7,124.6z"/>
	<path class="st0" d="M200.6,110.3c-5.7,0-11,0-16.6,0c0.5-5.7,2-10.8,5.8-15c4.4-5.1,10.3-7.1,16.9-8c8.7-1.2,17.1-0.2,25.2,3.2
		c6.1,2.5,10.4,8.4,10.5,15.1c0.2,10.1,0,20.4,0.1,30.5c0,4.7,0.3,9.5,0.4,14.2c0.1,2,1.1,3.2,2.5,4.4c0.6,0.5,1,1.2,1.8,2.3
		c-7.1,0-13.4,0-20,0c-0.5-2.5-1.1-5.1-1.7-8c-1.2,0.9-2.2,1.7-3.1,2.5c-5.9,5.5-12.8,8.4-20.9,7.8c-13.3-1.1-21.7-10.8-19.3-24.4
		c1.8-10.2,8.5-15.1,17.9-17.2c5.1-1.1,10.3-1.5,15.5-2.4c2.6-0.4,5.2-1.2,7.5-2.4c2.2-1.2,2.5-3.6,2.2-5.9
		c-0.3-2.5-1.5-4.6-3.9-5.4c-5-1.5-10-1.8-15-0.1c-2.8,1-4.1,3.5-5,6.1C201,108.7,200.8,109.5,200.6,110.3z M225,123.8
		c-2.1,0.8-4.1,1.6-6,2c-4.6,1.2-9.2,2-13.8,3.3c-3.9,1.2-5.8,4.4-5.9,8.2c-0.1,3.2,0.4,6.8,4,8.2c2.3,0.9,5.1,1.2,7.6,1.2
		c5.3,0,11.2-3.8,12.9-8.2C225.5,133.8,225,128.9,225,123.8z"/>
	<path class="st0" d="M122.6,70.7c0,6.3,0,12.3,0,18.5c3.7,0,7.4,0,11,0c0,4.1,0,7.9,0,12c-3.6,0-7.1,0-10.8,0
		c-0.1,0.8-0.2,1.4-0.2,2c0,12.3,0,24.5,0,36.7c0,4.3,1,5.2,5.2,5.2c1.9,0,3.6,0,5.7,0c0,4.4,0,8.5,0,13c-6.8-0.4-13.6,1.1-20.4-1.3
		c-5-1.8-7.6-5.2-7.7-10.6c-0.2-17.9-0.3-35.7-0.5-53.5c0-2.9,1.5-5,3.3-6.9c4.5-4.8,8.9-9.5,13.3-14.2
		C121.7,71.3,122,71.1,122.6,70.7z"/>
	<path class="st0" d="M276.8,145.2c2,4.4,3.7,8.4,5.6,12.5c0.1-0.1-0.2,0.3-0.4,0.3c-3.9,0.2-7.8,0.6-11.6,0.4
		c-3.4-0.2-6.8-0.8-10-1.6c-5.5-1.4-8.1-6-8.2-10.9c-0.2-18.6-0.1-37.1,0-55.6c0-0.6,0.2-1.4,0.6-1.9c4-4.5,8.2-9.1,12.2-13.6
		c1.2-1.2,2.2-2.6,3.7-4.4c0,6.6,0,12.5,0,18.8c3.7,0,7.4,0,11,0c0,4.1,0,8,0,12.1c-3.6,0-7.1,0-10.8,0c-0.1,0.8-0.2,1.5-0.2,2.1
		c0,12.4,0,25,0,37.4c0,3.6,0.9,4.4,4.5,4.4C274.5,145.2,275.8,145.2,276.8,145.2z"/>
	<path class="st0" d="M180.9,104.5c-4.3,0.5-8.4,0.5-12.1,1.5c-5.1,1.2-8.5,5.8-8.6,11c-0.3,12.3-0.4,24.6-0.5,36.9c0,1,0,2,0,3.1
		c-5.9,0-11.6,0-17.4,0c0-22.7,0-45.3,0-68.2c5.4,0,10.8,0,16.4,0c0,3.6,0,7.3,0,10.8c0.2,0.1,0.4,0.2,0.6,0.4
		c0.5-0.5,1.1-1,1.5-1.6c2.4-3.4,4.4-7.1,8.4-8.7c3.2-1.3,6.8-2,10.1-2.8c0.4-0.1,1.5,0.9,1.5,1.3
		C180.9,93.8,180.9,99.2,180.9,104.5z"/>
	<path class="st0" d="M466.1,137.4c2.5,0,4.7,0,7.1,0c0.5,1.5,1.1,3.1,1.7,4.7c2.4,6.5,7,10,14,10.9c4.8,0.6,9.4,0.5,14-1.1
		c7.7-2.8,10.5-9.6,7.6-16.6c-1.2-2.8-3.7-4.5-6.5-5.4c-5.6-1.6-11.2-2.9-16.9-4.3c-5.2-1.2-10.4-2.8-14.6-6.4
		c-2.7-2.3-4.2-5.4-4.5-8.9c-1.2-9.4,3.6-16.9,12.5-19.9c8.5-2.9,17-2.6,25.2,1c5.7,2.4,11.6,11.6,10.9,17.5c-2.1,0-4.3,0-6.6,0
		c-0.4-1.5-0.9-3-1.4-4.6c-2-5.5-6.4-8.2-11.8-9.1c-4.6-0.8-9.4-0.8-14,0.9c-4.9,1.8-7.1,4.9-7.6,10c-0.4,4.7,1.7,8.4,6,10
		c5.1,2,10.4,3.5,15.7,5c5.1,1.4,10.2,2.7,14.8,5.5c10.4,6.7,9.2,21.3,0.1,27.6c-5.2,3.6-10.8,4.8-16.9,5.3
		c-5.6,0.4-11-0.1-16.1-2.7c-7.3-3.6-11.3-9.7-12.4-17.8C466.5,138.6,466.3,138.1,466.1,137.4z"/>
	<path class="st0" d="M352.3,137.3c2.1,0,4-0.1,6,0.1c0.5,0.1,1.2,0.9,1.4,1.5c1.7,5.6,4.1,10.7,10,12.8c4.4,1.6,9.1,2,13.9,1.4
		c3.5-0.4,6.4-1.5,9.2-3.4c5.8-3.7,6.9-15-1.1-18.9c-5.3-2.7-11.1-3.4-16.7-4.6c-5-1.2-10-2.3-14.4-5.2c-6-4-8.4-11.1-6.3-18
		c2.1-7,6.9-11.3,13.8-13.2c6.8-1.9,13.7-1.8,20.4,0.4c7.9,2.6,12.3,8.4,14,16.4c0.2,0.7,0.3,1.4,0.4,2.3c-2.5,0-4.8,0-7.3,0
		c-0.7-4.8-2.7-9-6.9-11.4c-2.2-1.2-4.8-2-7.2-2.2c-3.8-0.3-7.8-0.4-11.5,0.4c-8.5,1.8-11.3,11.4-6.7,17.4c1.4,1.9,4,3.3,6.3,4.1
		c6.5,2.1,13.2,3.6,19.7,5.8c3.7,1.2,7.5,3.1,10.5,5.6c5.2,4.3,5.9,10.3,4.2,16.6c-1.6,5.8-5.7,9.2-10.9,11.5
		c-8.3,3.4-16.8,4.3-25.3,1.4c-9.1-3-14-9.7-15.7-18.8C352.2,138.7,352.3,138.1,352.3,137.3z"/>
</g>
</svg>
