<svg width="14" height="20" viewBox="0 0 14 20" fill="none" xmlns="http://www.w3.org/2000/svg">
<path d="M1.53882 8.89017L10.7975 1.17458C11.1123 0.914224 11.5174 0.789209 11.9241 0.826906C12.3308 0.864603 12.706 1.06194 12.9676 1.37571C13.2291 1.68947 13.3557 2.09409 13.3195 2.50096C13.2833 2.90783 13.0874 3.28379 12.7746 3.5465L4.9385 10.0762L12.7746 16.6059C13.0886 16.8682 13.2856 17.2445 13.3224 17.652C13.3591 18.0595 13.2326 18.4649 12.9706 18.7792C12.7087 19.0935 12.3326 19.291 11.9252 19.3282C11.5177 19.3654 11.1121 19.2394 10.7975 18.9778L1.53882 11.2621C1.36522 11.1171 1.22557 10.9357 1.12974 10.7307C1.03392 10.5258 0.984252 10.3024 0.984252 10.0761C0.984252 9.84991 1.03392 9.62645 1.12974 9.42152C1.22557 9.2166 1.36522 9.03521 1.53882 8.89017Z" fill="#c9cac8"/>
</svg>
