<svg width="13" height="13" viewBox="0 0 13 13" fill="none" xmlns="http://www.w3.org/2000/svg">
<g clip-path="url(#clip0_384_391)">
<path d="M10.8333 0.541992H2.16667C0.975 0.541992 0 1.51699 0 2.70866V8.12533C0 9.31699 0.975 10.292 2.16667 10.292V11.917C2.16667 12.4045 2.7625 12.6212 3.0875 12.2962L5.09167 10.292H10.8333C12.025 10.292 13 9.31699 13 8.12533V2.70866C13 1.51699 12.025 0.541992 10.8333 0.541992ZM7.58333 7.04199H4.33333C4.00833 7.04199 3.79167 6.82533 3.79167 6.50033C3.79167 6.17532 4.00833 5.95866 4.33333 5.95866H7.58333C7.90833 5.95866 8.125 6.17532 8.125 6.50033C8.125 6.82533 7.90833 7.04199 7.58333 7.04199ZM8.66667 4.87533H4.33333C4.00833 4.87533 3.79167 4.65866 3.79167 4.33366C3.79167 4.00866 4.00833 3.79199 4.33333 3.79199H8.66667C8.99167 3.79199 9.20833 4.00866 9.20833 4.33366C9.20833 4.65866 8.99167 4.87533 8.66667 4.87533Z" fill="#2A49B7"/>
</g>
<defs>
<clipPath id="clip0_384_391">
<rect width="13" height="13" fill="white"/>
</clipPath>
</defs>
</svg>
