<svg width="70" height="78" viewBox="0 0 70 78" fill="none" xmlns="http://www.w3.org/2000/svg">
<path d="M63.889 45.7143C63.6681 44.741 63.1289 43.823 62.2801 43.0804C61.4243 42.3426 60.3818 41.8975 59.3003 41.7347L41.9088 38.3691L46.9399 41.7079L38.9965 66.6089L34.5233 48.1119L30.0489 66.6089L22.1076 41.7083L27.1378 38.3695L9.74516 41.7351C8.6644 41.8975 7.62067 42.3431 6.76615 43.0808C5.91652 43.823 5.37736 44.7414 5.1564 45.7147L0 68.3631L9.72563 71.7397C12.9573 75.0955 21.9957 77.565 32.8371 77.7998H34.5229H36.2075C47.0501 77.5655 56.0885 75.0955 59.3186 71.7397L69.0458 68.3631L63.889 45.7143Z" fill="#2A49B7"/>
<path d="M34.5229 40.897L30.5132 42.3334L34.5229 48.1132L38.5318 42.3334L34.5229 40.897Z" fill="#2A49B7"/>
<path d="M49.4066 18.5938C49.4066 8.31437 45.1772 0.258301 34.523 0.258301C23.8675 0.258301 19.6385 8.31437 19.6385 18.5938C18.5244 19.1757 17.7931 20.5397 18.8865 23.4633C19.4391 24.9319 20.4124 26.162 21.2373 26.8057C24.2732 34.3654 30.2451 40.2017 34.523 40.2017C38.7988 40.2017 44.7715 34.3649 47.807 26.8057C48.6335 26.162 49.6056 24.9323 50.1574 23.4633C51.2532 20.5397 50.5216 19.1753 49.4066 18.5938Z" fill="#2A49B7"/>
</svg>
