<svg width="73" height="70" viewBox="0 0 73 70" fill="none" xmlns="http://www.w3.org/2000/svg">
<path d="M70.7826 36.7118L55.6307 29.1357V11.3845C55.6308 10.8679 55.487 10.3615 55.2155 9.92209C54.9439 9.48264 54.5554 9.12748 54.0934 8.89642L37.4042 0.551813C37.0178 0.358788 36.5919 0.258301 36.16 0.258301C35.7281 0.258301 35.3021 0.358788 34.9158 0.551813L18.2266 8.89642C17.7646 9.12748 17.376 9.48264 17.1045 9.92209C16.8329 10.3615 16.6892 10.8679 16.6892 11.3845V29.1357L1.53736 36.7118C1.07534 36.9428 0.686796 37.298 0.415264 37.7375C0.143732 38.1769 -5.99106e-05 38.6833 1.87252e-08 39.1999V58.6706C-5.99106e-05 59.1872 0.143732 59.6936 0.415264 60.133C0.686796 60.5725 1.07534 60.9276 1.53736 61.1587L18.2266 69.5033C18.6129 69.6963 19.0389 69.7968 19.4708 69.7968C19.9026 69.7968 20.3286 69.6963 20.7149 69.5033L36.16 61.7809L51.605 69.5033C51.9914 69.6963 52.4173 69.7968 52.8492 69.7968C53.2811 69.7968 53.707 69.6963 54.0934 69.5033L70.7826 61.1587C71.2446 60.9276 71.6331 60.5725 71.9047 60.133C72.1762 59.6936 72.32 59.1872 72.3199 58.6706V39.1999C72.32 38.6833 72.1762 38.1769 71.9047 37.7375C71.6331 37.298 71.2446 36.9428 70.7826 36.7118ZM50.0676 29.1357L38.9415 34.6988V21.4487L50.0676 15.8856V29.1357ZM36.16 6.15021L46.6288 11.3845L36.16 16.6188L25.6911 11.3845L36.16 6.15021ZM22.2523 15.8856L33.3784 21.4487V34.6988L22.2523 29.1357V15.8856ZM16.6892 62.5141L5.56307 56.9511V43.7009L16.6892 49.264V62.5141ZM19.4708 44.4342L9.00189 39.1999L19.4708 33.9656L29.9396 39.1999L19.4708 44.4342ZM22.2523 49.264L33.3784 43.7009V56.9511L22.2523 62.5141V49.264ZM50.0676 62.5141L38.9415 56.9511V43.7009L50.0676 49.264V62.5141ZM52.8492 44.4342L42.3803 39.1999L52.8492 33.9656L63.3181 39.1999L52.8492 44.4342ZM66.7569 56.9511L55.6307 62.5141V49.264L66.7569 43.7009V56.9511Z" fill="#2A49B7"/>
</svg>
