<svg width="86" height="78" viewBox="0 0 86 78" fill="none" xmlns="http://www.w3.org/2000/svg">
<path d="M84.715 56.1152C83.8815 53.7783 82.1733 51.9607 79.9047 50.9631C77.6361 49.9655 75.1353 49.9518 72.8531 50.9221L57.5473 57.3861C57.561 57.2084 57.5747 57.0034 57.5747 56.812C57.5747 53.8329 55.1558 51.4141 52.1765 51.4141H41.1345C40.6834 51.4141 40.2462 51.3184 39.8363 51.1271L30.475 46.9043C29.0129 46.2347 27.3865 45.8793 25.7741 45.8793H17.8478V45.114C17.8478 43.6108 16.6316 42.3809 15.1146 42.3809H0V76.8736H15.1146C16.6316 76.8736 17.8478 75.6437 17.8478 74.1404V71.995H22.2345L38.5653 77.2426C39.9182 77.6663 41.3122 77.885 42.7196 77.885C44.9337 77.885 47.1474 77.352 49.1154 76.2997L85.125 57.2221L84.715 56.1152ZM9.60717 71.8036C8.55486 71.8036 7.69408 70.9426 7.69408 69.8903C7.69408 68.8244 8.55486 67.9635 9.60717 67.9635C10.6595 67.9635 11.5204 68.8244 11.5204 69.8903C11.5204 70.9426 10.6595 71.8036 9.60717 71.8036ZM47.8444 73.8808C45.2616 75.261 42.1868 75.5207 39.3989 74.6324L22.8632 69.3164L17.8478 69.2617V48.6125H25.7741C27.0039 48.6125 28.234 48.8858 29.3408 49.3915L38.7019 53.628C39.4673 53.9696 40.2872 54.1473 41.1345 54.1473H52.1765C53.6524 54.1473 54.8414 55.3498 54.8414 56.8121C54.8414 58.288 53.6524 59.4769 52.1765 59.4769H37.882V62.2101H52.1765C53.1742 62.2101 54.1034 61.9504 54.8962 61.4722L73.919 53.4366C75.5042 52.767 77.2398 52.7807 78.8115 53.464C80.014 53.9969 80.9979 54.8715 81.6538 55.9785L47.8444 73.8808Z" fill="#2A49B7"/>
<path d="M12.3795 36.8702L20.8903 32.1548L29.2246 37.1758L27.3701 27.6243L33.4852 22.321L31.2275 32.0482C31.1047 32.5741 31.3035 33.1225 31.7346 33.4482C32.167 33.7738 32.7475 33.8145 33.22 33.5523L42.6807 28.3121L51.9425 33.8919C52.3893 34.1636 52.9757 34.1591 53.4306 33.8412C53.8723 33.5323 54.0912 32.9911 53.9884 32.4613L51.9279 21.8455L52.1224 21.6768L58.249 27.3923L56.0491 36.8702L64.56 32.1548L72.8942 37.1758L71.0398 27.6243L78.3902 21.2495L68.7333 20.0618L64.9418 11.101L60.8281 19.9183L53.4119 20.5585L60.0981 14.7603C60.5064 14.4066 60.6666 13.8461 60.5091 13.3297C60.3516 12.8132 59.9059 12.4375 59.3694 12.3714L48.6355 11.0516L44.4223 1.09241C44.2114 0.595276 43.7283 0.268316 43.1891 0.258301C43.1798 0.258301 43.1718 0.258301 43.1638 0.258301C42.634 0.258301 42.1495 0.565256 41.9253 1.04702L37.3531 10.8467L26.5792 11.7769C25.4073 11.8772 24.8971 13.3254 25.7638 14.1377L33.1859 21.0608L25.0636 20.0618L21.2723 11.101L17.1585 19.9183L7.4646 20.7551L14.5791 27.3923L12.3795 36.8702ZM38.3754 13.5018C38.8625 13.4598 39.2895 13.1615 39.4964 12.7184L43.1024 4.98799L46.4268 12.8439C46.6176 13.2943 47.034 13.6079 47.5184 13.668L55.9849 14.7089L49.5403 20.2981C49.1706 20.6184 49.0011 21.1108 49.0946 21.5906L50.7201 29.965L43.4133 25.5636C42.9924 25.3089 42.4678 25.3037 42.0467 25.5389L34.5839 29.6727L36.5123 21.363C36.6231 20.8873 36.4709 20.3882 36.1146 20.0545L29.8755 14.2352L38.3754 13.5018Z" fill="#2A49B7"/>
</svg>
