<svg width="77" height="78" viewBox="0 0 77 78" fill="none" xmlns="http://www.w3.org/2000/svg">
<path d="M40.8849 69.5229H21.5913C21.0329 69.5229 20.4974 69.7448 20.1025 70.1396C19.7077 70.5345 19.4858 71.07 19.4858 71.6284C19.4858 72.1868 19.7077 72.7224 20.1025 73.1172C20.4974 73.5121 21.0329 73.7339 21.5913 73.7339H40.8849C41.4433 73.7339 41.9788 73.5121 42.3737 73.1172C42.7685 72.7224 42.9903 72.1868 42.9903 71.6284C42.9903 71.07 42.7685 70.5345 42.3737 70.1396C41.9788 69.7448 41.4433 69.5229 40.8849 69.5229Z" fill="#2A49B7"/>
<path d="M56.6465 30.2366L56.3281 28.5402L54.904 29.5147C54.1927 30.0016 53.3335 30.2244 52.4752 30.1447C51.6169 30.0651 50.8134 29.6878 50.2038 29.0783L48.6027 27.4764C47.9935 26.8668 47.6164 26.0636 47.5367 25.2055C47.4569 24.3475 47.6795 23.4885 48.1658 22.7771L49.1404 21.3523L47.4432 21.034C46.5966 20.8746 45.8321 20.4245 45.282 19.7615C44.7318 19.0985 44.4304 18.2642 44.4299 17.4026V15.1377C44.4303 14.276 44.7317 13.4415 45.282 12.7783C45.8323 12.1152 46.597 11.6651 47.4438 11.5057L49.1402 11.1875L48.1657 9.76337C47.761 9.16704 47.5409 8.46469 47.533 7.74404C41.8892 3.6953 34.936 1.90214 28.0381 2.71654C22.3202 3.37013 16.9412 5.76484 12.6292 9.57648C8.31718 13.3881 5.28048 18.4326 3.93014 24.0272C2.5798 29.6217 2.98104 35.496 5.07954 40.8549C7.17804 46.2139 10.8725 50.7986 15.6627 53.9886C16.8591 54.7629 17.8456 55.8208 18.5345 57.0683C19.2235 58.3158 19.5934 59.7142 19.6116 61.1392V63.4379C19.6116 63.8687 19.7827 64.2818 20.0873 64.5864C20.3919 64.891 20.805 65.0621 21.2358 65.0621H29.7429V43.4781H26.4832C24.7378 43.4781 23.0533 42.8366 21.7501 41.6755C20.4469 40.5144 19.6159 38.9148 19.4154 37.1809C19.2148 35.447 19.6586 33.6999 20.6623 32.272C21.6661 30.8441 23.1597 29.8349 24.859 29.4365V26.6056C24.8541 26.3892 24.8924 26.174 24.9718 25.9727C25.0512 25.7714 25.17 25.588 25.3213 25.4332C25.4726 25.2785 25.6533 25.1555 25.8527 25.0716C26.0522 24.9876 26.2664 24.9444 26.4828 24.9444C26.6992 24.9444 26.9134 24.9876 27.1129 25.0716C27.3124 25.1555 27.493 25.2785 27.6443 25.4332C27.7956 25.588 27.9144 25.7714 27.9938 25.9727C28.0732 26.174 28.1115 26.3892 28.1066 26.6056V30.8734C28.1066 31.0867 28.0646 31.2979 27.983 31.495C27.9013 31.692 27.7817 31.8711 27.6309 32.0219C27.4801 32.1727 27.301 32.2924 27.1039 32.374C26.9069 32.4556 26.6957 32.4976 26.4824 32.4976C25.9729 32.4948 25.4679 32.5927 24.9964 32.7857C24.5248 32.9787 24.0961 33.263 23.7349 33.6222C23.3736 33.9815 23.0869 34.4086 22.8913 34.879C22.6957 35.3495 22.5949 35.8539 22.5949 36.3634C22.5949 36.8729 22.6957 37.3774 22.8913 37.8478C23.0869 38.3183 23.3736 38.7454 23.7349 39.1046C24.0961 39.4639 24.5248 39.7482 24.9964 39.9412C25.4679 40.1342 25.9729 40.2321 26.4824 40.2293H35.9933C36.5028 40.2321 37.0078 40.1342 37.4793 39.9412C37.9509 39.7482 38.3796 39.4639 38.7409 39.1046C39.1021 38.7454 39.3888 38.3183 39.5844 37.8478C39.7801 37.3774 39.8808 36.8729 39.8808 36.3634C39.8808 35.8539 39.7801 35.3495 39.5844 34.879C39.3888 34.4086 39.1021 33.9815 38.7409 33.6222C38.3796 33.263 37.9509 32.9787 37.4793 32.7857C37.0078 32.5927 36.5028 32.4948 35.9933 32.4976C35.78 32.4976 35.5688 32.4556 35.3718 32.374C35.1747 32.2924 34.9957 32.1727 34.8448 32.0219C34.694 31.8711 34.5744 31.692 34.4927 31.495C34.4111 31.2979 34.3691 31.0867 34.3691 30.8734V26.6052C34.3638 26.3886 34.4019 26.1732 34.4812 25.9716C34.5604 25.77 34.6792 25.5863 34.8305 25.4312C34.9818 25.2762 35.1625 25.153 35.3622 25.0689C35.5618 24.9848 35.7762 24.9414 35.9928 24.9414C36.2095 24.9414 36.4239 24.9848 36.6235 25.0689C36.8232 25.153 37.0039 25.2762 37.1552 25.4312C37.3065 25.5863 37.4253 25.77 37.5045 25.9716C37.5838 26.1732 37.6219 26.3886 37.6166 26.6052V29.4361C39.3159 29.8345 40.8095 30.8437 41.8133 32.2716C42.817 33.6996 43.2608 35.4467 43.0602 37.1805C42.8597 38.9144 42.0287 40.514 40.7255 41.6751C39.4223 42.8362 37.7378 43.4778 35.9924 43.4777H32.9897V65.0618H41.1055C41.3188 65.0618 41.53 65.0197 41.7271 64.9381C41.9242 64.8565 42.1032 64.7369 42.254 64.586C42.4049 64.4352 42.5245 64.2562 42.6061 64.0591C42.6877 63.862 42.7297 63.6508 42.7297 63.4375L42.7308 61.0384C42.7492 59.6547 43.1128 58.2975 43.7887 57.0899C44.4645 55.8823 45.4312 54.8626 46.601 54.1233C50.162 51.8029 53.1476 48.7019 55.3316 45.0557C57.5156 41.4095 58.8405 37.3138 59.2058 33.0793C58.56 32.8849 57.98 32.517 57.5287 32.0158C57.0775 31.5146 56.7723 30.8992 56.6465 30.2366Z" fill="#2A49B7"/>
<path d="M74.8669 14.2256L72.243 13.7332C71.9972 13.689 71.7674 13.581 71.5764 13.4201C71.3855 13.2592 71.2402 13.0509 71.155 12.8162C71.0352 12.4767 70.8976 12.1437 70.7429 11.8187C70.6376 11.5926 70.5934 11.343 70.6147 11.0945C70.6359 10.8461 70.7219 10.6076 70.8641 10.4027L72.3706 8.201C72.4928 8.02232 72.5487 7.80654 72.5287 7.59099C72.5086 7.37544 72.4138 7.17368 72.2608 7.02061L70.6604 5.41962C70.5073 5.2665 70.3056 5.17171 70.09 5.15168C69.8745 5.13164 69.6587 5.18761 69.4801 5.30989L67.2778 6.81596C67.0729 6.9582 66.8343 7.04427 66.5858 7.06561C66.3373 7.08695 66.0875 7.04282 65.8613 6.9376C65.5363 6.78274 65.2034 6.64519 64.8638 6.52553C64.6292 6.44021 64.421 6.29485 64.2601 6.10394C64.0992 5.91302 63.9912 5.68325 63.9468 5.43754L63.4548 2.81365C63.4149 2.60088 63.3019 2.40876 63.1353 2.27052C62.9687 2.13229 62.759 2.05663 62.5425 2.05664H60.2784C60.0619 2.05661 59.8522 2.13226 59.6856 2.2705C59.519 2.40874 59.4059 2.60087 59.366 2.81365L58.8738 5.43754C58.8296 5.68329 58.7216 5.91312 58.5607 6.10404C58.3997 6.29497 58.1915 6.44031 57.9568 6.52553C57.6173 6.64528 57.2844 6.78279 56.9593 6.93748C56.7332 7.04273 56.4835 7.0869 56.2351 7.06558C55.9866 7.04426 55.7481 6.95819 55.5432 6.81596L53.3408 5.30941C53.1622 5.18712 52.9464 5.13116 52.7308 5.15119C52.5153 5.17123 52.3135 5.26602 52.1605 5.41913L50.5594 7.01977C50.4063 7.17286 50.3116 7.37464 50.2916 7.5902C50.2716 7.80576 50.3276 8.02153 50.4499 8.20016L51.9565 10.4019C52.0987 10.6067 52.1847 10.8453 52.206 11.0937C52.2273 11.3422 52.183 11.5919 52.0777 11.818C51.9232 12.1431 51.7858 12.476 51.6659 12.8155C51.5807 13.0502 51.4354 13.2584 51.2444 13.4194C51.0535 13.5803 50.8237 13.6883 50.5779 13.7325L47.954 14.2248C47.7413 14.2647 47.5492 14.3778 47.4109 14.5443C47.2727 14.7109 47.197 14.9206 47.197 15.137V17.4027C47.197 17.6192 47.2727 17.8289 47.4109 17.9955C47.5492 18.1621 47.7413 18.2751 47.954 18.3151L50.5779 18.8071C50.8236 18.8515 51.0534 18.9595 51.2444 19.1204C51.4353 19.2813 51.5806 19.4895 51.6659 19.7242C51.7857 20.0636 51.9232 20.3966 52.0777 20.7217C52.183 20.9477 52.2273 21.1974 52.206 21.4459C52.1847 21.6944 52.0987 21.9329 51.9565 22.1378L50.4499 24.3401C50.3276 24.5187 50.2716 24.7344 50.2916 24.95C50.3116 25.1655 50.4063 25.3673 50.5594 25.5203L52.1605 27.1216C52.3136 27.2746 52.5154 27.3693 52.7309 27.3893C52.9464 27.4093 53.1621 27.3534 53.3408 27.2312L55.5432 25.7246C55.7481 25.5823 55.9867 25.4962 56.2352 25.4749C56.4837 25.4536 56.7334 25.4978 56.9595 25.6031C57.2846 25.7579 57.6175 25.8955 57.9571 26.0152C58.1917 26.1005 58.3999 26.2458 58.5608 26.4367C58.7216 26.6277 58.8296 26.8575 58.8738 27.1032L59.366 29.7271C59.406 29.9398 59.519 30.132 59.6856 30.2702C59.8522 30.4084 60.0619 30.4841 60.2784 30.4841H62.5425C62.759 30.4841 62.9687 30.4084 63.1353 30.2702C63.3018 30.1319 63.4149 29.9398 63.4548 29.7271L63.9468 27.1032C63.9912 26.8575 64.0992 26.6277 64.2601 26.4368C64.421 26.2459 64.6292 26.1005 64.8638 26.0152C65.2034 25.8955 65.5363 25.7579 65.8613 25.6031C66.0875 25.4978 66.3372 25.4536 66.5858 25.4749C66.8343 25.4962 67.0729 25.5823 67.2778 25.7246L69.4805 27.2306C69.6591 27.3528 69.8749 27.4088 70.0904 27.3887C70.306 27.3686 70.5077 27.2739 70.6607 27.1207L72.2616 25.5197C72.4147 25.3667 72.5095 25.165 72.5295 24.9494C72.5496 24.7339 72.4937 24.5181 72.3715 24.3395L70.8641 22.1372C70.7218 21.9323 70.6357 21.6938 70.6144 21.4453C70.593 21.1969 70.6372 20.9472 70.7424 20.7211C70.8972 20.3961 71.0348 20.0632 71.1545 19.7237C71.2397 19.4889 71.385 19.2807 71.5759 19.1197C71.7669 18.9588 71.9967 18.8508 72.2425 18.8065L74.8664 18.3145C75.0791 18.2745 75.2713 18.1615 75.4095 17.9949C75.5477 17.8283 75.6234 17.6186 75.6234 17.4021V15.1379C75.6234 14.9215 75.5478 14.7119 75.4097 14.5453C75.2715 14.3787 75.0795 14.2657 74.8669 14.2256ZM61.4105 21.0519C60.4647 21.0519 59.5402 20.7715 58.7538 20.246C57.9674 19.7206 57.3545 18.9738 56.9926 18.1C56.6306 17.2262 56.5359 16.2647 56.7204 15.3371C56.905 14.4095 57.3604 13.5574 58.0292 12.8887C58.6979 12.2199 59.55 11.7645 60.4776 11.5799C61.4052 11.3954 62.3667 11.4901 63.2405 11.8521C64.1143 12.214 64.8611 12.8269 65.3865 13.6133C65.912 14.3997 66.1924 15.3242 66.1924 16.27C66.1924 17.5382 65.6886 18.7546 64.7918 19.6513C63.8951 20.5481 62.6787 21.0519 61.4105 21.0519Z" fill="#2A49B7"/>
</svg>
