<svg width="14" height="14" viewBox="0 0 14 14" fill="none" xmlns="http://www.w3.org/2000/svg">
<path d="M2.81944 6.06278C3.93944 8.26389 5.74 10.0644 7.945 11.1844L9.65611 9.46945C9.87 9.25556 10.1772 9.19333 10.4456 9.27889C11.3167 9.56667 12.2539 9.72222 13.2222 9.72222C13.6539 9.72222 14 10.0683 14 10.5V13.2222C14 13.6539 13.6539 14 13.2222 14C5.91889 14 0 8.08111 0 0.777778C0 0.346111 0.35 0 0.777778 0H3.5C3.93167 0 4.27778 0.346111 4.27778 0.777778C4.27778 1.74611 4.43333 2.68333 4.72111 3.55444C4.80667 3.82278 4.74444 4.13 4.53056 4.34389L2.81944 6.06278Z" fill="#2A49B7"/>
</svg>
