<svg width="40" height="55" viewBox="0 0 40 55" fill="none" xmlns="http://www.w3.org/2000/svg">
<path d="M1.17904 27.4705L19.8154 1.54844L38.4518 27.4705L19.8154 53.3925L1.17904 27.4705Z" fill="white" stroke="white"/>
<path d="M28.6643 27.8243C28.8595 27.629 28.8595 27.3124 28.6643 27.1171L25.4823 23.9352C25.287 23.7399 24.9705 23.7399 24.7752 23.9352C24.5799 24.1304 24.5799 24.447 24.7752 24.6423L27.6036 27.4707L24.7752 30.2991C24.5799 30.4944 24.5799 30.811 24.7752 31.0062C24.9705 31.2015 25.287 31.2015 25.4823 31.0062L28.6643 27.8243ZM11.3191 27.9707L28.3107 27.9707L28.3107 26.9707L11.3191 26.9707L11.3191 27.9707Z" fill="#2A49B7"/>
</svg>
