<svg width="31" height="45" viewBox="0 0 31 45" fill="none" xmlns="http://www.w3.org/2000/svg">
<path d="M0.927426 22.8594L15.3223 1.74694L29.7171 22.8594L15.3223 43.9718L0.927426 22.8594Z" fill="#2A49B7" stroke="black"/>
<path d="M22.6758 23.2129C22.8711 23.0177 22.8711 22.7011 22.6758 22.5058L19.4938 19.3238C19.2986 19.1286 18.982 19.1286 18.7867 19.3238C18.5915 19.5191 18.5915 19.8357 18.7867 20.0309L21.6152 22.8594L18.7867 25.6878C18.5915 25.8831 18.5915 26.1996 18.7867 26.3949C18.982 26.5902 19.2986 26.5902 19.4938 26.3949L22.6758 23.2129ZM8.32227 23.3594L22.3223 23.3594L22.3223 22.3594L8.32227 22.3594L8.32227 23.3594Z" fill="white"/>
</svg>
