<svg width="35" height="52" viewBox="0 0 35 52" fill="none" xmlns="http://www.w3.org/2000/svg">
<path d="M1.06073 25.9656L17.6041 1.70202L34.1474 25.9656L17.6041 50.2291L1.06073 25.9656Z" fill="#2A49B7" stroke="white"/>
<path d="M25.9604 26.3194C26.1556 26.1241 26.1556 25.8075 25.9604 25.6123L22.7784 22.4303C22.5831 22.235 22.2665 22.235 22.0713 22.4303C21.876 22.6255 21.876 22.9421 22.0713 23.1374L24.8997 25.9658L22.0713 28.7942C21.876 28.9895 21.876 29.3061 22.0713 29.5014C22.2665 29.6966 22.5831 29.6966 22.7784 29.5014L25.9604 26.3194ZM9.60156 26.4658L25.6068 26.4658L25.6068 25.4658L9.60156 25.4658L9.60156 26.4658Z" fill="white"/>
</svg>
