<svg width="147" height="43" viewBox="0 0 147 43" fill="none" xmlns="http://www.w3.org/2000/svg">
<path d="M44.4479 26.2707C43.5479 26.2707 42.7319 26.0967 41.9999 25.7487C41.2799 25.3887 40.7039 24.8427 40.2719 24.1107C39.8519 23.3787 39.6419 22.4487 39.6419 21.3207V13.4547H41.5499V21.3387C41.5499 22.4427 41.8139 23.2527 42.3419 23.7687C42.8699 24.2847 43.5839 24.5427 44.4839 24.5427C45.3719 24.5427 46.0799 24.2847 46.6079 23.7687C47.1359 23.2527 47.3999 22.4427 47.3999 21.3387V13.4547H49.3079V21.3207C49.3079 22.4487 49.0859 23.3787 48.6419 24.1107C48.2099 24.8427 47.6219 25.3887 46.8779 25.7487C46.1459 26.0967 45.3359 26.2707 44.4479 26.2707ZM52.4033 30.0147V17.1267H54.1133L54.3113 18.5127C54.5993 18.0927 54.9953 17.7207 55.4993 17.3967C56.0033 17.0727 56.6513 16.9107 57.4433 16.9107C58.3073 16.9107 59.0693 17.1147 59.7293 17.5227C60.3893 17.9307 60.9053 18.4887 61.2773 19.1967C61.6613 19.9047 61.8533 20.7087 61.8533 21.6087C61.8533 22.5087 61.6613 23.3127 61.2773 24.0207C60.9053 24.7167 60.3893 25.2687 59.7293 25.6767C59.0693 26.0727 58.3013 26.2707 57.4253 26.2707C56.7293 26.2707 56.1113 26.1327 55.5713 25.8567C55.0433 25.5807 54.6233 25.1907 54.3113 24.6867V30.0147H52.4033ZM57.1013 24.6147C57.9173 24.6147 58.5893 24.3387 59.1173 23.7867C59.6453 23.2227 59.9093 22.4907 59.9093 21.5907C59.9093 21.0027 59.7893 20.4807 59.5493 20.0247C59.3093 19.5687 58.9793 19.2147 58.5593 18.9627C58.1393 18.6987 57.6533 18.5667 57.1013 18.5667C56.2853 18.5667 55.6133 18.8487 55.0853 19.4127C54.5693 19.9767 54.3113 20.7027 54.3113 21.5907C54.3113 22.4907 54.5693 23.2227 55.0853 23.7867C55.6133 24.3387 56.2853 24.6147 57.1013 24.6147ZM64.637 26.0547V13.0947H66.545V26.0547H64.637ZM73.8572 26.2707C73.0052 26.2707 72.2372 26.0787 71.5532 25.6947C70.8812 25.2987 70.3472 24.7527 69.9512 24.0567C69.5552 23.3487 69.3572 22.5267 69.3572 21.5907C69.3572 20.6547 69.5552 19.8387 69.9512 19.1427C70.3592 18.4347 70.9052 17.8887 71.5892 17.5047C72.2732 17.1087 73.0352 16.9107 73.8752 16.9107C74.7272 16.9107 75.4892 17.1087 76.1612 17.5047C76.8452 17.8887 77.3852 18.4347 77.7812 19.1427C78.1892 19.8387 78.3932 20.6547 78.3932 21.5907C78.3932 22.5267 78.1892 23.3487 77.7812 24.0567C77.3852 24.7527 76.8452 25.2987 76.1612 25.6947C75.4772 26.0787 74.7092 26.2707 73.8572 26.2707ZM73.8572 24.6327C74.3132 24.6327 74.7332 24.5187 75.1172 24.2907C75.5132 24.0627 75.8312 23.7267 76.0712 23.2827C76.3112 22.8267 76.4312 22.2627 76.4312 21.5907C76.4312 20.9187 76.3112 20.3607 76.0712 19.9167C75.8432 19.4607 75.5312 19.1187 75.1352 18.8907C74.7512 18.6627 74.3312 18.5487 73.8752 18.5487C73.4192 18.5487 72.9932 18.6627 72.5972 18.8907C72.2132 19.1187 71.9012 19.4607 71.6612 19.9167C71.4212 20.3607 71.3012 20.9187 71.3012 21.5907C71.3012 22.2627 71.4212 22.8267 71.6612 23.2827C71.9012 23.7267 72.2132 24.0627 72.5972 24.2907C72.9812 24.5187 73.4012 24.6327 73.8572 24.6327ZM84.2006 26.2707C83.4446 26.2707 82.8206 26.1447 82.3286 25.8927C81.8366 25.6407 81.4706 25.3107 81.2306 24.9027C80.9906 24.4827 80.8706 24.0267 80.8706 23.5347C80.8706 22.6707 81.2066 21.9867 81.8786 21.4827C82.5506 20.9787 83.5106 20.7267 84.7586 20.7267H87.0986V20.5647C87.0986 19.8687 86.9066 19.3467 86.5226 18.9987C86.1506 18.6507 85.6646 18.4767 85.0646 18.4767C84.5366 18.4767 84.0746 18.6087 83.6786 18.8727C83.2946 19.1247 83.0606 19.5027 82.9766 20.0067H81.0686C81.1286 19.3587 81.3446 18.8067 81.7166 18.3507C82.1006 17.8827 82.5806 17.5287 83.1566 17.2887C83.7446 17.0367 84.3866 16.9107 85.0826 16.9107C86.3306 16.9107 87.2966 17.2407 87.9806 17.9007C88.6646 18.5487 89.0066 19.4367 89.0066 20.5647V26.0547H87.3506L87.1886 24.5247C86.9366 25.0167 86.5706 25.4307 86.0906 25.7667C85.6106 26.1027 84.9806 26.2707 84.2006 26.2707ZM84.5786 24.7227C85.0946 24.7227 85.5266 24.6027 85.8746 24.3627C86.2346 24.1107 86.5106 23.7807 86.7026 23.3727C86.9066 22.9647 87.0326 22.5147 87.0806 22.0227H84.9566C84.2006 22.0227 83.6606 22.1547 83.3366 22.4187C83.0246 22.6827 82.8686 23.0127 82.8686 23.4087C82.8686 23.8167 83.0186 24.1407 83.3186 24.3807C83.6306 24.6087 84.0506 24.7227 84.5786 24.7227ZM96.0193 26.2707C95.1553 26.2707 94.3933 26.0667 93.7333 25.6587C93.0733 25.2507 92.5573 24.6927 92.1853 23.9847C91.8133 23.2767 91.6273 22.4727 91.6273 21.5727C91.6273 20.6727 91.8133 19.8747 92.1853 19.1787C92.5573 18.4707 93.0733 17.9187 93.7333 17.5227C94.4053 17.1147 95.1733 16.9107 96.0373 16.9107C96.7453 16.9107 97.3633 17.0487 97.8913 17.3247C98.4313 17.6007 98.8513 17.9907 99.1513 18.4947V13.0947H101.059V26.0547H99.3493L99.1513 24.6687C98.8633 25.0887 98.4673 25.4607 97.9633 25.7847C97.4593 26.1087 96.8113 26.2707 96.0193 26.2707ZM96.3613 24.6147C97.1773 24.6147 97.8433 24.3327 98.3593 23.7687C98.8873 23.2047 99.1513 22.4787 99.1513 21.5907C99.1513 20.6907 98.8873 19.9647 98.3593 19.4127C97.8433 18.8487 97.1773 18.5667 96.3613 18.5667C95.5453 18.5667 94.8733 18.8487 94.3453 19.4127C93.8173 19.9647 93.5533 20.6907 93.5533 21.5907C93.5533 22.1787 93.6733 22.7007 93.9133 23.1567C94.1533 23.6127 94.4833 23.9727 94.9033 24.2367C95.3353 24.4887 95.8213 24.6147 96.3613 24.6147ZM109.512 26.0547V13.4547H117.414V15.0027H111.42V18.9807H116.388V20.5107H111.42V26.0547H109.512ZM121.014 15.4347C120.654 15.4347 120.354 15.3267 120.114 15.1107C119.886 14.8827 119.772 14.6007 119.772 14.2647C119.772 13.9287 119.886 13.6527 120.114 13.4367C120.354 13.2087 120.654 13.0947 121.014 13.0947C121.374 13.0947 121.668 13.2087 121.896 13.4367C122.136 13.6527 122.256 13.9287 122.256 14.2647C122.256 14.6007 122.136 14.8827 121.896 15.1107C121.668 15.3267 121.374 15.4347 121.014 15.4347ZM120.06 26.0547V17.1267H121.968V26.0547H120.06ZM125.206 26.0547V13.0947H127.114V26.0547H125.206ZM134.426 26.2707C133.55 26.2707 132.77 26.0787 132.086 25.6947C131.414 25.2987 130.886 24.7527 130.502 24.0567C130.118 23.3607 129.926 22.5507 129.926 21.6267C129.926 20.6907 130.112 19.8687 130.484 19.1607C130.868 18.4527 131.396 17.9007 132.068 17.5047C132.752 17.1087 133.544 16.9107 134.444 16.9107C135.32 16.9107 136.082 17.1087 136.73 17.5047C137.378 17.8887 137.882 18.4047 138.242 19.0527C138.602 19.7007 138.782 20.4147 138.782 21.1947C138.782 21.3147 138.776 21.4467 138.764 21.5907C138.764 21.7227 138.758 21.8727 138.746 22.0407H131.798C131.858 22.9047 132.14 23.5647 132.644 24.0207C133.16 24.4647 133.754 24.6867 134.426 24.6867C134.966 24.6867 135.416 24.5667 135.776 24.3267C136.148 24.0747 136.424 23.7387 136.604 23.3187H138.512C138.272 24.1587 137.792 24.8607 137.072 25.4247C136.364 25.9887 135.482 26.2707 134.426 26.2707ZM134.426 18.4767C133.79 18.4767 133.226 18.6687 132.734 19.0527C132.242 19.4247 131.942 19.9887 131.834 20.7447H136.874C136.838 20.0487 136.592 19.4967 136.136 19.0887C135.68 18.6807 135.11 18.4767 134.426 18.4767Z" fill="black"/>
<path d="M16.3687 26.214H13.4357C13.2264 26.214 13.0258 26.1309 12.8778 25.9829C12.7298 25.835 12.6467 25.6343 12.6467 25.425C12.6467 25.2158 12.7298 25.0151 12.8778 24.8671C13.0258 24.7191 13.2264 24.636 13.4357 24.636H16.3687C17.3394 24.6244 18.2664 24.2307 18.9487 23.5402C19.631 22.8497 20.0136 21.9181 20.0136 20.9473C20.0136 19.9766 19.631 19.045 18.9487 18.3545C18.2664 17.664 17.3394 17.2703 16.3687 17.2587C16.2693 17.2587 16.1636 17.2634 16.0458 17.2739C15.8967 17.2866 15.7471 17.2567 15.6143 17.1876C15.4816 17.1185 15.3713 17.0131 15.2962 16.8836C14.7642 15.9659 13.9624 15.2343 12.9999 14.7883C12.0374 14.3423 10.9609 14.2035 9.91678 14.3909C8.87265 14.5782 7.91155 15.0826 7.16417 15.8354C6.41679 16.5882 5.9194 17.553 5.73963 18.5984C5.70749 18.7871 5.60787 18.9576 5.45933 19.0783C5.31078 19.199 5.12345 19.2616 4.9322 19.2544H4.87645C4.52298 19.2544 4.17297 19.324 3.84641 19.4593C3.51985 19.5945 3.22313 19.7928 2.9732 20.0427C2.72326 20.2927 2.52499 20.5894 2.38973 20.9159C2.25446 21.2425 2.18484 21.5925 2.18484 21.946C2.18484 22.2994 2.25446 22.6494 2.38973 22.976C2.52499 23.3026 2.72326 23.5993 2.9732 23.8492C3.22313 24.0992 3.51985 24.2974 3.84641 24.4327C4.17297 24.568 4.52298 24.6376 4.87645 24.6376H8.80628C9.01554 24.6376 9.21623 24.7207 9.3642 24.8687C9.51217 25.0166 9.5953 25.2173 9.5953 25.4266C9.5953 25.6358 9.51217 25.8365 9.3642 25.9845C9.21623 26.1325 9.01554 26.2156 8.80628 26.2156H4.87645C3.79282 26.2146 2.75011 25.8016 1.95964 25.0604C1.16917 24.3191 0.690074 23.3051 0.619439 22.2238C0.548805 21.1425 0.891918 20.0747 1.57924 19.237C2.26657 18.3992 3.24669 17.8541 4.32098 17.7121C4.65819 16.4676 5.3452 15.3459 6.30055 14.48C7.2559 13.6141 8.43953 13.0403 9.71109 12.8266C10.9826 12.6129 12.2888 12.7684 13.4747 13.2745C14.6606 13.7807 15.6765 14.6163 16.4019 15.6822C17.7804 15.7138 19.0916 16.2847 20.0538 17.2723C21.0161 18.2599 21.5526 19.5855 21.5483 20.9644C21.544 22.3432 20.9991 23.6654 20.0306 24.647C19.0622 25.6285 17.7474 26.1912 16.3687 26.214Z" fill="#2A49B7"/>
<path d="M11.1214 18.535C11.3306 18.5352 11.5312 18.6185 11.679 18.7665L14.2133 21.3003C14.3613 21.4482 14.4445 21.6489 14.4446 21.8582C14.4446 22.0675 14.3615 22.2682 14.2136 22.4162C14.0656 22.5642 13.865 22.6474 13.6557 22.6475C13.4464 22.6475 13.2457 22.5644 13.0977 22.4165L11.1214 20.4397L9.14468 22.4165C8.99666 22.5644 8.79594 22.6475 8.58666 22.6475C8.37738 22.6474 8.1767 22.5642 8.02875 22.4162C7.8808 22.2682 7.79771 22.0675 7.79776 21.8582C7.79781 21.6489 7.88099 21.4482 8.02901 21.3003L10.5633 18.7665C10.6366 18.6931 10.7236 18.6349 10.8194 18.5952C10.9151 18.5555 11.0178 18.5351 11.1214 18.535Z" fill="#2A49B7"/>
<path d="M11.1209 18.5357C11.3302 18.5357 11.5308 18.6188 11.6788 18.7668C11.8268 18.9147 11.9099 19.1154 11.9099 19.3247L11.9099 27.9913C11.9099 28.2005 11.8268 28.4012 11.6788 28.5492C11.5308 28.6971 11.3302 28.7803 11.1209 28.7803C10.9116 28.7803 10.7109 28.6971 10.563 28.5492C10.415 28.4012 10.3319 28.2005 10.3319 27.9913L10.3319 19.3247C10.3319 19.1154 10.415 18.9147 10.563 18.7668C10.7109 18.6188 10.9116 18.5357 11.1209 18.5357Z" fill="#2A49B7"/>
</svg>
