<svg width="15" height="14" viewBox="0 0 15 14" fill="none" xmlns="http://www.w3.org/2000/svg">
<path d="M7.79918 8.26002C9.69569 8.26002 11.2331 6.4151 11.2331 4.13929C11.2331 1.86347 9.69569 0.0185547 7.79918 0.0185547C5.90266 0.0185547 4.36523 1.86347 4.36523 4.13929C4.36523 6.4151 5.90266 8.26002 7.79918 8.26002Z" fill="#2A49B7"/>
<path d="M14.5297 11.7634C13.9116 10.5272 12.7441 9.49704 11.2331 8.87893C10.821 8.74158 10.3403 8.74158 9.9969 8.94761C9.31011 9.35969 8.62332 9.56572 7.79917 9.56572C6.97503 9.56572 6.28824 9.35969 5.60145 8.94761C5.25806 8.81025 4.77731 8.74158 4.36523 8.94761C2.8543 9.56572 1.68676 10.5959 1.06865 11.8321C0.587896 12.7249 1.34336 13.7551 2.37355 13.7551H13.2248C14.255 13.7551 15.0105 12.7249 14.5297 11.7634Z" fill="#2A49B7"/>
</svg>
