<svg width="112" height="104" viewBox="0 0 112 104" fill="none" xmlns="http://www.w3.org/2000/svg">
<path d="M87.4445 88.3242L2.24924 91.1071" stroke="#2A49B7" stroke-width="2" stroke-linecap="round"/>
<line x1="1.8364" y1="90.6812" x2="2.20482" y2="6.16931" stroke="#2A49B7" stroke-width="2" stroke-linecap="round"/>
<path d="M26.2753 102.417L110.606 98.2842" stroke="#2A49B7" stroke-width="2" stroke-linecap="round"/>
<line x1="86.6871" y1="2.49937" x2="87.4034" y2="87.7448" stroke="#2A49B7" stroke-width="2" stroke-linecap="round"/>
<path d="M86.4267 1.87448L2.83213 5.54027" stroke="#2A49B7" stroke-width="2" stroke-linecap="round"/>
<path d="M110.605 98.2841L110.606 11.4053" stroke="#2A49B7" stroke-width="2" stroke-linecap="round"/>
<path d="M2.3916 5.64941L26.0265 14.1454" stroke="#2A49B7" stroke-width="2" stroke-linecap="round"/>
<path d="M26.5684 14.9634L26.1276 102.363" stroke="#2A49B7" stroke-width="2" stroke-linecap="round"/>
<path d="M87.6298 88.3246L110.588 98.007" stroke="#2A49B7" stroke-width="2" stroke-linecap="round"/>
<path d="M27.0312 14.0681L110.24 11.4054" stroke="#2A49B7" stroke-width="2" stroke-linecap="round"/>
<path d="M86.6816 1.89136L110.389 11.3239" stroke="#2A49B7" stroke-width="2" stroke-linecap="round"/>
<path d="M1.92759 91.3487L25.8863 102.202" stroke="#2A49B7" stroke-width="2" stroke-linecap="round"/>
<path d="M31.7002 72.3909L77.5828 78.1479" stroke="#2A49B7" stroke-width="1.14461" stroke-linecap="round"/>
<path d="M36.7735 48.2272L35.8912 47.9822L35.6533 48.8391L36.5029 49.102L36.7735 48.2272ZM38.1101 45.2975L37.3671 44.7623L37.3617 44.7698L38.1101 45.2975ZM40.1725 43.3414L40.6556 44.1193L40.6629 44.1146L40.1725 43.3414ZM42.7923 42.3204L42.9615 43.2203L42.9682 43.219L42.7923 42.3204ZM48.7697 43.0877L48.3554 43.9044L48.368 43.9106L48.7697 43.0877ZM50.9071 44.671L50.2229 45.2797L50.2283 45.2856L50.9071 44.671ZM52.1391 46.8501L51.2617 47.1126L51.2651 47.1233L52.1391 46.8501ZM51.7983 51.4967L50.9679 51.1106L50.9634 51.1205L51.7983 51.4967ZM50.801 52.9635L50.1527 52.3168L50.1475 52.322L50.1425 52.3272L50.801 52.9635ZM49.3971 53.9467L49.0191 53.1127L49.0191 53.1127L49.3971 53.9467ZM47.6144 54.5017L47.4401 53.6027L44.5315 54.1665L47.251 55.3422L47.6144 54.5017ZM50.7714 57.0608L49.9846 57.5293L49.9873 57.5337L50.7714 57.0608ZM50.3955 63.9179L49.6263 63.421L49.6263 63.421L50.3955 63.9179ZM48.2969 66.0252L47.8017 65.2549L47.796 65.2586L48.2969 66.0252ZM45.4725 67.1589L45.6486 68.0575L45.6547 68.0563L45.4725 67.1589ZM39.0096 66.3999L38.6141 67.2258L38.6234 67.2302L39.0096 66.3999ZM36.7871 64.8059L36.1075 65.4197L36.1131 65.4259L36.1189 65.4321L36.7871 64.8059ZM35.3911 62.5543L34.5419 62.8969L35.3911 62.5543ZM34.6024 59.7387L34.3561 58.8567L33.5551 59.0803L33.7008 59.8991L34.6024 59.7387ZM36.27 59.2731L36.5163 60.1551L36.526 60.1522L36.27 59.2731ZM37.4818 59.2694L37.1817 60.1345L37.1869 60.1363L37.4818 59.2694ZM38.2374 60.0044L39.1011 59.7001L38.2374 60.0044ZM38.7032 61.2568L37.8497 61.5886L37.8536 61.5984L38.7032 61.2568ZM39.4288 62.5072L38.7058 63.0691L38.7148 63.0807L38.7243 63.0921L39.4288 62.5072ZM40.6486 63.5428L40.1676 64.3219L40.1777 64.3282L40.1879 64.3342L40.6486 63.5428ZM44.6562 64.011L44.9114 64.8905L44.9195 64.888L44.6562 64.011ZM46.2453 63.2068L45.6733 62.4917L45.673 62.4919L46.2453 63.2068ZM47.7679 58.795L46.8625 58.9324L46.8633 58.9376L47.7679 58.795ZM47.0658 57.3572L46.3851 57.9699L46.3933 57.9787L47.0658 57.3572ZM45.3669 56.2788L45.0126 57.1232L45.0199 57.1263L45.0272 57.1292L45.3669 56.2788ZM42.3581 55.5726L41.4495 55.4586L41.3355 56.3671L42.2441 56.4811L42.3581 55.5726ZM42.6894 52.932L42.7934 52.0223L41.8936 51.9194L41.7809 52.818L42.6894 52.932ZM45.3343 52.9524L45.4647 53.8589L45.4743 53.8574L45.3343 52.9524ZM47.1405 52.3485L47.6242 53.126L47.6265 53.1246L47.1405 52.3485ZM48.2186 51.2033L47.4156 50.7632L47.4111 50.7713L47.4068 50.7796L48.2186 51.2033ZM48.6269 47.9495L49.5118 47.7142L48.6269 47.9495ZM47.9588 46.6544L47.2454 47.2284L47.2551 47.2405L47.2652 47.2522L47.9588 46.6544ZM46.8241 45.7679L47.2196 44.942L47.2196 44.942L46.8241 45.7679ZM43.6896 45.3746L43.5104 44.4766L43.5039 44.478L43.6896 45.3746ZM42.3456 45.8808L41.8878 45.0877L41.8761 45.0947L42.3456 45.8808ZM41.2974 46.7875L41.9983 47.3769L42.006 47.3676L41.2974 46.7875ZM40.592 47.9968L41.4149 48.3983L41.433 48.3613L41.4476 48.3229L40.592 47.9968ZM39.827 48.8526L39.4677 48.0103L39.4598 48.0137L39.452 48.0172L39.827 48.8526ZM38.6558 48.8094L38.9271 47.9348L38.9264 47.9346L38.6558 48.8094ZM37.6558 48.4721C37.9484 47.4183 38.3536 46.5413 38.8585 45.8251L37.3617 44.7698C36.716 45.6858 36.23 46.7619 35.8912 47.9822L37.6558 48.4721ZM38.8532 45.8326C39.3757 45.1071 39.9771 44.5405 40.6555 44.1193L39.6894 42.5635C38.7915 43.1211 38.018 43.8586 37.3671 44.7623L38.8532 45.8326ZM40.6629 44.1146C41.3504 43.6786 42.1138 43.3796 42.9615 43.2203L42.6232 41.4205C41.5569 41.6209 40.5738 42.0025 39.682 42.5681L40.6629 44.1146ZM42.9682 43.219C43.8334 43.0497 44.7593 43.0229 45.7513 43.1473L45.9794 41.3302C44.8135 41.1839 43.6908 41.2115 42.6165 41.4217L42.9682 43.219ZM45.7513 43.1473C46.7533 43.273 47.6171 43.5298 48.3554 43.9043L49.184 42.2711C48.2304 41.7873 47.158 41.4781 45.9794 41.3302L45.7513 43.1473ZM48.368 43.9106C49.1326 44.2838 49.7452 44.7427 50.223 45.2797L51.5911 44.0623C50.9366 43.3266 50.1243 42.73 49.1714 42.2648L48.368 43.9106ZM50.2283 45.2856C50.7153 45.8234 51.0575 46.4298 51.2618 47.1125L53.0163 46.5877C52.733 45.6404 52.2538 44.794 51.5858 44.0563L50.2283 45.2856ZM51.2651 47.1233C51.4779 47.8044 51.5406 48.5397 51.4401 49.3407L53.2572 49.5687C53.3876 48.5298 53.3105 47.5287 53.0131 46.5769L51.2651 47.1233ZM51.4401 49.3407C51.3509 50.0517 51.1883 50.6368 50.968 51.1106L52.6286 51.8827C52.9455 51.2012 53.1498 50.4249 53.2572 49.5687L51.4401 49.3407ZM50.9634 51.1205C50.7496 51.5952 50.4781 51.9906 50.1527 52.3168L51.4493 53.6102C51.942 53.1162 52.3354 52.5337 52.6332 51.8728L50.9634 51.1205ZM50.1425 52.3272C49.8276 52.653 49.4557 52.9148 49.0191 53.1127L49.7751 54.7807C50.415 54.4907 50.9789 54.097 51.4594 53.5998L50.1425 52.3272ZM49.0191 53.1127C48.5534 53.3238 48.0285 53.4887 47.4401 53.6027L47.7887 55.4007C48.5008 55.2626 49.1645 55.0575 49.7751 54.7807L49.0191 53.1127ZM47.251 55.3422C48.5902 55.9211 49.4692 56.6636 49.9846 57.5292L51.5582 56.5923C50.7968 55.3136 49.5711 54.35 47.9778 53.6612L47.251 55.3422ZM49.9873 57.5337C50.5015 58.3863 50.7101 59.434 50.5468 60.7356L52.3639 60.9636C52.5682 59.3351 52.3209 57.8569 51.5555 56.5879L49.9873 57.5337ZM50.5468 60.7356C50.413 61.8017 50.0992 62.689 49.6263 63.421L51.1647 64.4147C51.8085 63.418 52.2013 62.2599 52.3639 60.9636L50.5468 60.7356ZM49.6263 63.421C49.1366 64.1791 48.5294 64.7871 47.8017 65.2549L48.7921 66.7954C49.7458 66.1822 50.5377 65.3854 51.1647 64.4147L49.6263 63.421ZM47.796 65.2586C47.0716 65.732 46.24 66.0687 45.2903 66.2615L45.6547 68.0563C46.8121 67.8213 47.8634 67.4023 48.7978 66.7917L47.796 65.2586ZM45.2964 66.2603C44.3576 66.4443 43.3732 66.4745 42.3389 66.3447L42.1109 68.1618C43.3252 68.3142 44.506 68.2814 45.6486 68.0575L45.2964 66.2603ZM42.3389 66.3447C41.1454 66.1949 40.1709 65.9302 39.3958 65.5697L38.6234 67.2302C39.614 67.691 40.783 67.9952 42.1109 68.1618L42.3389 66.3447ZM39.4051 65.574C38.6146 65.1955 37.9695 64.7286 37.4553 64.1798L36.1189 65.4321C36.8052 66.1645 37.6418 66.7602 38.6141 67.2258L39.4051 65.574ZM37.4667 64.1922C36.9545 63.6251 36.5452 62.9673 36.2403 62.2117L34.5419 62.8969C34.9234 63.8424 35.4447 64.6858 36.1075 65.4197L37.4667 64.1922ZM36.2403 62.2117C35.9238 61.4272 35.6769 60.5507 35.5039 59.5782L33.7008 59.8991C33.8931 60.9797 34.1721 61.9803 34.5419 62.8969L36.2403 62.2117ZM34.8486 60.6206L36.5163 60.155L36.0238 58.3911L34.3561 58.8567L34.8486 60.6206ZM36.526 60.1522C36.8231 60.0657 37.0291 60.0815 37.1817 60.1345L37.7818 58.4042C37.2049 58.2041 36.603 58.2224 36.0141 58.3939L36.526 60.1522ZM37.1869 60.1363C37.3081 60.1775 37.3432 60.2221 37.3738 60.3088L39.1011 59.7001C38.8764 59.0626 38.4078 58.6171 37.7766 58.4024L37.1869 60.1363ZM37.3738 60.3088C37.5136 60.7056 37.6724 61.1323 37.8497 61.5886L39.5567 60.9251C39.3852 60.4839 39.2334 60.0757 39.1011 59.7001L37.3738 60.3088ZM37.8536 61.5984C38.0632 62.1196 38.349 62.61 38.7058 63.0691L40.1519 61.9454C39.8928 61.612 39.6949 61.2687 39.5528 60.9152L37.8536 61.5984ZM38.7243 63.0921C39.1173 63.5656 39.6032 63.9735 40.1676 64.3219L41.1296 62.7636C40.709 62.5039 40.3817 62.2215 40.1334 61.9224L38.7243 63.0921ZM40.1879 64.3342C40.8287 64.7071 41.5948 64.9304 42.4509 65.0379L42.6789 63.2207C41.9906 63.1344 41.4791 62.9667 41.1092 62.7514L40.1879 64.3342ZM42.4509 65.0379C43.3293 65.1481 44.1558 65.1097 44.9114 64.8904L44.401 63.1316C43.9355 63.2667 43.3679 63.3072 42.6789 63.2207L42.4509 65.0379ZM44.9195 64.888C45.637 64.6727 46.276 64.3551 46.8175 63.9216L45.673 62.4919C45.3425 62.7565 44.9222 62.9751 44.393 63.134L44.9195 64.888ZM46.8173 63.9219C47.356 63.4909 47.7907 62.9798 48.1086 62.3889L46.4957 61.5213C46.3021 61.8813 46.0321 62.2047 45.6733 62.4917L46.8173 63.9219ZM48.1086 62.3889C48.4126 61.8236 48.6096 61.234 48.6863 60.6233L46.8691 60.3953C46.8232 60.7613 46.7032 61.1355 46.4957 61.5213L48.1086 62.3889ZM48.6863 60.6233C48.7723 59.9375 48.7711 59.2787 48.6724 58.6524L46.8633 58.9376C46.9316 59.3705 46.937 59.8546 46.8691 60.3953L48.6863 60.6233ZM48.6732 58.6576C48.5625 57.9282 48.2433 57.2821 47.7382 56.7357L46.3933 57.9787C46.6602 58.2675 46.809 58.5799 46.8625 58.9324L48.6732 58.6576ZM47.7463 56.7446C47.2448 56.1875 46.5397 55.7613 45.7065 55.4285L45.0272 57.1292C45.71 57.4019 46.1375 57.6947 46.3852 57.9698L47.7463 56.7446ZM45.7212 55.4345C44.8684 55.0766 43.774 54.8273 42.4721 54.664L42.2441 56.4811C43.4635 56.6341 44.375 56.8557 45.0126 57.1232L45.7212 55.4345ZM43.2667 55.6866L43.598 53.046L41.7809 52.818L41.4495 55.4586L43.2667 55.6866ZM42.5854 53.8418C43.6688 53.9657 44.6339 53.9782 45.4647 53.8588L45.204 52.0461C44.578 52.1361 43.7799 52.135 42.7934 52.0223L42.5854 53.8418ZM45.4743 53.8574C46.2946 53.7305 47.025 53.4987 47.6242 53.126L46.6568 51.5709C46.3301 51.7742 45.8564 51.9451 45.1944 52.0475L45.4743 53.8574ZM47.6265 53.1246C48.2304 52.7464 48.7069 52.2468 49.0304 51.627L47.4068 50.7796C47.2444 51.0908 47.0021 51.3547 46.6545 51.5724L47.6265 53.1246ZM49.0216 51.6433C49.3368 51.0682 49.5322 50.434 49.6177 49.7523L47.8006 49.5242C47.7408 50.0009 47.6091 50.4101 47.4156 50.7632L49.0216 51.6433ZM49.6177 49.7523C49.7077 49.0351 49.681 48.3508 49.5118 47.7142L47.7419 48.1847C47.8392 48.5506 47.8673 48.9921 47.8006 49.5242L49.6177 49.7523ZM49.5118 47.7142C49.3461 47.0908 49.0624 46.5322 48.6524 46.0565L47.2652 47.2522C47.4795 47.5008 47.6412 47.8057 47.7419 48.1847L49.5118 47.7142ZM48.6722 46.0803C48.2818 45.5951 47.7924 45.2163 47.2196 44.942L46.4287 46.5938C46.7699 46.7572 47.037 46.9694 47.2454 47.2284L48.6722 46.0803ZM47.2196 44.942C46.6615 44.6748 46.0461 44.5052 45.3838 44.4221L45.1558 46.2392C45.6519 46.3015 46.0727 46.4234 46.4287 46.5938L47.2196 44.942ZM45.3838 44.4221C44.74 44.3413 44.1136 44.3563 43.5104 44.4766L43.8687 46.2726C44.2595 46.1947 44.6866 46.1803 45.1558 46.2392L45.3838 44.4221ZM43.5039 44.478C42.9271 44.5974 42.3867 44.7998 41.8878 45.0878L42.8034 46.6739C43.1253 46.488 43.4809 46.353 43.8753 46.2713L43.5039 44.478ZM41.8761 45.0947C41.3843 45.3883 40.9545 45.7608 40.5889 46.2075L42.006 47.3676C42.2398 47.082 42.5087 46.85 42.8151 46.667L41.8761 45.0947ZM40.5965 46.1983C40.2295 46.6348 39.9432 47.1277 39.7363 47.6708L41.4476 48.3229C41.5847 47.9632 41.7687 47.6499 41.9983 47.3768L40.5965 46.1983ZM39.769 47.5953C39.5966 47.9486 39.471 48.0089 39.4677 48.0103L40.1864 49.6948C40.7681 49.4466 41.1524 48.9364 41.4149 48.3983L39.769 47.5953ZM39.452 48.0172C39.4694 48.0094 39.4483 48.0247 39.3571 48.0214C39.2644 48.018 39.1241 47.9959 38.9271 47.9348L38.3845 49.684C38.9603 49.8626 39.6166 49.9508 40.2021 49.6879L39.452 48.0172ZM38.9264 47.9346L37.0441 47.3524L36.5029 49.102L38.3852 49.6842L38.9264 47.9346ZM76.7687 63.922L77.5723 64.3611L77.5734 64.359L76.7687 63.922ZM73.7793 67.4749L73.2174 66.7518L73.2136 66.7548L73.7793 67.4749ZM69.5958 69.5109L69.8228 70.398L69.8263 70.3971L69.5958 69.5109ZM55.2088 68.6055L54.3003 68.4915L54.1863 69.4001L55.0948 69.5141L55.2088 68.6055ZM58.2869 44.0742L58.4009 43.1656L57.4923 43.0516L57.3783 43.9602L58.2869 44.0742ZM72.4494 46.7683L72.0051 47.569L72.0124 47.573L72.4494 46.7683ZM76.0023 49.7578L75.2763 50.3158L75.2792 50.3196L76.0023 49.7578ZM78.0192 53.9561L77.1315 54.1808L77.1321 54.1831L78.0192 53.9561ZM74.1068 54.6592L73.2088 54.8384L73.2105 54.8465L74.1068 54.6592ZM72.8284 51.609L72.0801 52.137L72.0844 52.1429L72.8284 51.609ZM70.4783 49.5146L70.0242 50.3098L70.0319 50.3141L70.4783 49.5146ZM61.8862 47.7963L62.0002 46.8877L61.0917 46.7737L60.9777 47.6823L61.8862 47.7963ZM59.6162 65.8881L58.7076 65.7741L58.5936 66.6827L59.5022 66.7967L59.6162 65.8881ZM68.3643 66.3628L68.1293 65.4778L68.3643 66.3628ZM71.159 64.9139L70.5649 64.2171L70.5644 64.2175L71.159 64.9139ZM73.1514 62.2741L72.3291 61.8712L72.3267 61.8761L73.1514 62.2741ZM77.3723 58.9277C77.1568 60.6452 76.6835 62.1602 75.9641 63.485L77.5734 64.359C78.4141 62.811 78.9489 61.0725 79.1895 59.1557L77.3723 58.9277ZM75.9652 63.4829C75.2433 64.804 74.327 65.8896 73.2174 66.7518L74.3411 68.1979C75.6601 67.173 76.7368 65.89 77.5723 64.3611L75.9652 63.4829ZM73.2136 66.7548C72.1167 67.6164 70.8383 68.2417 69.3654 68.6247L69.8263 70.3971C71.5255 69.9553 73.036 69.2232 74.3449 68.1949L73.2136 66.7548ZM69.3689 68.6238C67.9216 68.994 66.3321 69.0783 64.5902 68.8598L64.3622 70.6769C66.3 70.92 68.1236 70.8327 69.8228 70.398L69.3689 68.6238ZM64.5902 68.8598L55.3228 67.6969L55.0948 69.5141L64.3622 70.6769L64.5902 68.8598ZM56.1174 68.7195L59.1954 44.1882L57.3783 43.9602L54.3003 68.4915L56.1174 68.7195ZM58.1729 44.9828L67.4402 46.1456L67.6682 44.3284L58.4009 43.1656L58.1729 44.9828ZM67.4402 46.1456C69.1801 46.3639 70.6969 46.843 72.0051 47.569L72.8938 45.9677C71.3547 45.1136 69.6081 44.5718 67.6682 44.3284L67.4402 46.1456ZM72.0124 47.573C73.3441 48.2963 74.4274 49.2113 75.2763 50.3158L76.7283 49.1998C75.7129 47.8785 74.4275 46.8006 72.8864 45.9637L72.0124 47.573ZM75.2792 50.3196C76.1404 51.4279 76.7595 52.7109 77.1315 54.1808L78.9069 53.7315C78.4768 52.0322 77.7513 50.5163 76.7254 49.1959L75.2792 50.3196ZM77.1321 54.1831C77.5027 55.6317 77.5878 57.2101 77.3723 58.9277L79.1895 59.1557C79.4299 57.239 79.3407 55.427 78.9063 53.7292L77.1321 54.1831ZM75.1179 58.6448C75.305 57.1542 75.2723 55.7601 75.0032 54.4719L73.2105 54.8465C73.4314 55.9039 73.4672 57.0909 73.3008 58.4168L75.1179 58.6448ZM75.0048 54.48C74.7488 53.1969 74.276 52.0557 73.5723 51.0752L72.0844 52.1429C72.618 52.8865 72.9974 53.7787 73.2088 54.8384L75.0048 54.48ZM73.5766 51.0811C72.8869 50.1036 71.9985 49.3146 70.9247 48.715L70.0319 50.3141C70.877 50.7859 71.5554 51.3932 72.0802 52.137L73.5766 51.0811ZM70.9323 48.7194C69.8548 48.1041 68.6266 47.7191 67.2643 47.5482L67.0362 49.3653C68.1952 49.5107 69.1856 49.8309 70.0242 50.3098L70.9323 48.7194ZM67.2643 47.5482L62.0002 46.8877L61.7722 48.7048L67.0362 49.3653L67.2643 47.5482ZM60.9777 47.6823L58.7076 65.7741L60.5248 66.0021L62.7948 47.9103L60.9777 47.6823ZM59.5022 66.7967L64.7662 67.4572L64.9942 65.64L59.7302 64.9795L59.5022 66.7967ZM64.7662 67.4572C66.1256 67.6277 67.4071 67.5644 68.5993 67.2478L68.1293 65.4778C67.1973 65.7253 66.1561 65.7858 64.9942 65.64L64.7662 67.4572ZM68.5993 67.2478C69.7879 66.9322 70.8437 66.3871 71.7535 65.6103L70.5644 64.2175C69.8721 64.8085 69.0648 65.2294 68.1293 65.4778L68.5993 67.2478ZM71.7531 65.6107C72.6735 64.8259 73.4122 63.8403 73.976 62.6721L72.3267 61.8761C71.8616 62.8399 71.272 63.6141 70.5649 64.2171L71.7531 65.6107ZM73.9736 62.6771C74.5531 61.4946 74.9296 60.1459 75.1179 58.6448L73.3008 58.4168C73.1329 59.755 72.8041 60.9019 72.3291 61.8712L73.9736 62.6771Z" fill="#2A49B7"/>
</svg>
