<svg width="112" height="104" viewBox="0 0 112 104" fill="none" xmlns="http://www.w3.org/2000/svg">
<path d="M87.4445 88.3242L2.24924 91.1071" stroke="#2A49B7" stroke-width="2" stroke-linecap="round"/>
<line x1="1.83689" y1="90.6812" x2="2.2053" y2="6.16931" stroke="#2A49B7" stroke-width="2" stroke-linecap="round"/>
<path d="M26.2753 102.417L110.606 98.2842" stroke="#2A49B7" stroke-width="2" stroke-linecap="round"/>
<line x1="86.6871" y1="2.49937" x2="87.4034" y2="87.7448" stroke="#2A49B7" stroke-width="2" stroke-linecap="round"/>
<path d="M86.4272 1.87448L2.83262 5.54027" stroke="#2A49B7" stroke-width="2" stroke-linecap="round"/>
<path d="M110.605 98.2841L110.606 11.4053" stroke="#2A49B7" stroke-width="2" stroke-linecap="round"/>
<path d="M2.3916 5.64941L26.0265 14.1454" stroke="#2A49B7" stroke-width="2" stroke-linecap="round"/>
<path d="M26.5684 14.9634L26.1276 102.363" stroke="#2A49B7" stroke-width="2" stroke-linecap="round"/>
<path d="M87.6298 88.3246L110.588 98.007" stroke="#2A49B7" stroke-width="2" stroke-linecap="round"/>
<path d="M27.0308 14.0681L110.24 11.4054" stroke="#2A49B7" stroke-width="2" stroke-linecap="round"/>
<path d="M86.6821 1.89136L110.389 11.3239" stroke="#2A49B7" stroke-width="2" stroke-linecap="round"/>
<path d="M1.92759 91.3487L25.8863 102.202" stroke="#2A49B7" stroke-width="2" stroke-linecap="round"/>
<path fill-rule="evenodd" clip-rule="evenodd" d="M83.5605 44.5804L85.9235 45.0143C86.5476 45.129 87.0007 45.6727 87.0007 46.3073V49.5875C87.0007 50.2221 86.5476 50.7658 85.9235 50.8805L83.5594 51.3148C83.4926 51.3272 83.4383 51.3759 83.4179 51.4423C83.1987 52.1558 82.9101 52.8515 82.5603 53.511C82.5275 53.5725 82.5309 53.6457 82.5697 53.7019L83.9348 55.6812C84.2951 56.2034 84.231 56.9082 83.7824 57.3572L81.4628 59.6764C81.0142 60.125 80.3094 60.1892 79.7872 59.8289L77.8075 58.4638C77.7513 58.4249 77.6781 58.4212 77.6162 58.454C76.9571 58.8037 76.2613 59.0924 75.5482 59.3112C75.4818 59.3319 75.4332 59.3863 75.4207 59.4531L74.9865 61.8176C74.8718 62.442 74.3281 62.8948 73.6935 62.8948H70.4132C69.7786 62.8948 69.2349 62.442 69.1202 61.8176L68.686 59.4534C68.6735 59.3863 68.6248 59.332 68.5584 59.3116C67.8457 59.0927 67.15 58.8041 66.4905 58.454C66.4286 58.4215 66.3554 58.4249 66.2992 58.4638L64.3195 59.8289C63.7973 60.1892 63.0925 60.125 62.6439 59.6764L60.3243 57.3568C59.8757 56.9082 59.8116 56.2034 60.1715 55.6812L61.5366 53.7019C61.5754 53.6457 61.5792 53.5725 61.5464 53.5106C61.1962 52.8511 60.9076 52.155 60.6888 51.4423C60.668 51.3755 60.6137 51.3268 60.5469 51.3144L58.1831 50.8805C57.5591 50.7658 57.106 50.2221 57.106 49.5875V46.3073C57.106 45.6727 57.5591 45.129 58.1831 45.0143L60.5462 44.5804C60.6129 44.5679 60.6673 44.5193 60.6876 44.4529C60.9068 43.7394 61.1955 43.0429 61.546 42.383C61.5784 42.3211 61.575 42.2479 61.5362 42.1917L60.1719 40.2135C59.8116 39.6914 59.8757 38.9866 60.3243 38.5376L62.6435 36.2183C63.0925 35.7697 63.7973 35.7056 64.3195 36.0659L66.2973 37.4298C66.3535 37.4687 66.4267 37.4725 66.4886 37.4397C67.1485 37.0891 67.845 36.8001 68.5588 36.5809C68.6252 36.5606 68.6739 36.5062 68.6863 36.4391L69.1202 34.0772C69.2349 33.4531 69.7786 33 70.4132 33H73.6935C74.3281 33 74.8718 33.4531 74.9865 34.0772L75.4203 36.4394C75.4328 36.5062 75.4815 36.5606 75.5482 36.5809C76.2617 36.8001 76.9582 37.0891 77.6181 37.4393C77.6796 37.4721 77.7532 37.4687 77.8094 37.4298L79.7872 36.0655C80.3094 35.7056 81.0142 35.7697 81.4628 36.2183L83.7824 38.538C84.231 38.9866 84.2951 39.6914 83.9348 40.2135L82.5705 42.1921C82.5316 42.2483 82.5279 42.3215 82.5607 42.383C82.9112 43.0433 83.1998 43.7394 83.4187 44.4525C83.439 44.5193 83.4934 44.5679 83.5605 44.5804ZM72.0226 52.8901C74.7687 52.8901 76.9949 50.664 76.9949 47.9179C76.9949 45.1718 74.7687 42.9457 72.0226 42.9457C69.2765 42.9457 67.0504 45.1718 67.0504 47.9179C67.0504 50.664 69.2765 52.8901 72.0226 52.8901Z" fill="#2A49B7"/>
<path fill-rule="evenodd" clip-rule="evenodd" d="M57.4546 59.4998L59.8176 59.9337C60.4416 60.0484 60.8948 60.5921 60.8948 61.2267V64.5069C60.8948 65.1415 60.4416 65.6852 59.8176 65.7999L57.4534 66.2342C57.3867 66.2466 57.3323 66.2953 57.312 66.3617C57.0927 67.0752 56.8041 67.7709 56.4544 68.4304C56.4215 68.4919 56.4249 68.5651 56.4638 68.6214L57.8289 70.6007C58.1892 71.1228 58.125 71.8276 57.6764 72.2766L55.3568 74.5959C54.9082 75.0445 54.2034 75.1086 53.6812 74.7483L51.7015 73.3832C51.6453 73.3444 51.5721 73.3406 51.5103 73.3734C50.8511 73.7232 50.1554 74.0118 49.4423 74.2306C49.3759 74.2514 49.3272 74.3057 49.3148 74.3725L48.8805 76.737C48.7658 77.3614 48.2221 77.8142 47.5875 77.8142H44.3073C43.6727 77.8142 43.129 77.3614 43.0143 76.737L42.58 74.3729C42.5676 74.3057 42.5189 74.2514 42.4525 74.231C41.7398 74.0122 41.044 73.7235 40.3845 73.3734C40.3226 73.341 40.2494 73.3444 40.1932 73.3832L38.2135 74.7483C37.6914 75.1086 36.9866 75.0445 36.538 74.5959L34.2183 72.2762C33.7697 71.8276 33.7056 71.1228 34.0655 70.6007L35.4306 68.6214C35.4695 68.5651 35.4732 68.4919 35.4404 68.4301C35.0903 67.7706 34.8016 67.0744 34.5828 66.3617C34.5621 66.2949 34.5077 66.2463 34.441 66.2338L32.0772 65.7999C31.4531 65.6852 31 65.1415 31 64.5069V61.2267C31 60.5921 31.4531 60.0484 32.0772 59.9337L34.4402 59.4998C34.507 59.4874 34.5613 59.4387 34.5817 59.3723C34.8009 58.6588 35.0895 57.9623 35.44 57.3024C35.4725 57.2406 35.4691 57.1674 35.4302 57.1111L34.0659 55.133C33.7056 54.6108 33.7697 53.906 34.2183 53.457L36.5376 51.1378C36.9866 50.6892 37.6914 50.625 38.2135 50.9854L40.1913 52.3493C40.2476 52.3881 40.3208 52.3919 40.3826 52.3591C41.0425 52.0086 41.739 51.7196 42.4529 51.5004C42.5193 51.48 42.5679 51.4257 42.5804 51.3585L43.0143 48.9966C43.129 48.3726 43.6727 47.9194 44.3073 47.9194H47.5875C48.2221 47.9194 48.7658 48.3726 48.8805 48.9966L49.3144 51.3589C49.3268 51.4257 49.3755 51.48 49.4423 51.5004C50.1558 51.7196 50.8522 52.0086 51.5121 52.3587C51.5736 52.3915 51.6472 52.3881 51.7034 52.3493L53.6812 50.985C54.2034 50.625 54.9082 50.6892 55.3568 51.1378L57.6764 53.4574C58.125 53.906 58.1892 54.6108 57.8289 55.133L56.4645 57.1115C56.4257 57.1677 56.4219 57.2409 56.4547 57.3024C56.8052 57.9627 57.0939 58.6588 57.3127 59.3719C57.3331 59.4387 57.3874 59.4874 57.4546 59.4998ZM46.1892 66.4904C48.0563 66.4904 49.5698 64.9769 49.5698 63.1099C49.5698 61.2428 48.0563 59.7293 46.1892 59.7293C44.3222 59.7293 42.8086 61.2428 42.8086 63.1099C42.8086 64.9769 44.3222 66.4904 46.1892 66.4904Z" fill="#2A49B7"/>
<circle cx="46.2271" cy="63.1478" r="7.14758" stroke="white" stroke-width="1.24306"/>
</svg>
