<svg width="112" height="104" viewBox="0 0 112 104" fill="none" xmlns="http://www.w3.org/2000/svg">
<path d="M87.4445 88.3242L2.24924 91.1071" stroke="#2A49B7" stroke-width="2" stroke-linecap="round"/>
<line x1="1.8364" y1="90.6812" x2="2.20482" y2="6.16931" stroke="#2A49B7" stroke-width="2" stroke-linecap="round"/>
<path d="M26.2753 102.417L110.606 98.2842" stroke="#2A49B7" stroke-width="2" stroke-linecap="round"/>
<line x1="86.6871" y1="2.49937" x2="87.4034" y2="87.7448" stroke="#2A49B7" stroke-width="2" stroke-linecap="round"/>
<path d="M86.4267 1.87448L2.83213 5.54027" stroke="#2A49B7" stroke-width="2" stroke-linecap="round"/>
<path d="M110.605 98.2841L110.606 11.4053" stroke="#2A49B7" stroke-width="2" stroke-linecap="round"/>
<path d="M2.3916 5.64941L26.0265 14.1454" stroke="#2A49B7" stroke-width="2" stroke-linecap="round"/>
<path d="M26.5684 14.9634L26.1276 102.363" stroke="#2A49B7" stroke-width="2" stroke-linecap="round"/>
<path d="M87.6298 88.3246L110.588 98.007" stroke="#2A49B7" stroke-width="2" stroke-linecap="round"/>
<path d="M27.0312 14.0681L110.24 11.4054" stroke="#2A49B7" stroke-width="2" stroke-linecap="round"/>
<path d="M86.6816 1.89136L110.389 11.3239" stroke="#2A49B7" stroke-width="2" stroke-linecap="round"/>
<path d="M1.92759 91.3487L25.8863 102.202" stroke="#2A49B7" stroke-width="2" stroke-linecap="round"/>
<path fill-rule="evenodd" clip-rule="evenodd" d="M82.8998 47.9505C83.1611 46.3231 82.0537 44.792 80.4263 44.5307L42.7074 38.4732C41.08 38.2119 39.5489 39.3193 39.2875 40.9466L38.5413 45.593C38.28 47.2204 39.3874 48.7515 41.0148 49.0128L42.7767 49.2958C44.2721 49.5359 45.6591 48.5719 46.4864 47.3032C47.8088 45.275 49.8706 44.097 51.9624 44.433C54.0542 44.7689 55.6435 46.5332 56.2644 48.8735C56.6528 50.3374 57.6682 51.6873 59.1636 51.9274L60.2216 52.0973C61.717 52.3375 63.104 51.3734 63.9313 50.1047C65.2537 48.0766 67.3155 46.8986 69.4073 47.2346C71.499 47.5705 73.0883 49.3348 73.7092 51.675C74.0976 53.1389 75.113 54.4888 76.6085 54.729L78.7337 55.0703C80.3611 55.3316 81.8922 54.2243 82.1536 52.5969L82.8998 47.9505Z" fill="#2A49B7"/>
<path fill-rule="evenodd" clip-rule="evenodd" d="M80.0854 65.4733C79.8241 67.1006 78.293 68.208 76.6656 67.9467L38.9466 61.8892C37.3193 61.6279 36.2119 60.0968 36.4732 58.4694L37.2194 53.823C37.4807 52.1956 39.0119 51.0883 40.6392 51.3496L42.5409 51.655C44.0355 51.895 45.0507 53.2437 45.4398 54.7066C46.0616 57.0445 47.6501 58.8068 49.7405 59.1425C51.8309 59.4782 53.8914 58.302 55.2139 56.2763C56.0415 55.0088 57.4279 54.0458 58.9225 54.2858L59.8212 54.4301C61.3158 54.6702 62.3311 56.0188 62.7201 57.4817C63.3419 59.8197 64.9304 61.5819 67.0208 61.9176C69.1113 62.2533 71.1717 61.0771 72.4942 59.0514C73.3218 57.7839 74.7082 56.8209 76.2028 57.0609L78.3582 57.4071C79.9856 57.6684 81.093 59.1995 80.8316 60.8269L80.0854 65.4733Z" fill="#2A49B7"/>
<path d="M49.9715 55.886C52.1134 56.23 54.0647 54.5598 54.4277 52.2994C54.7907 50.0391 53.4605 47.8419 51.3186 47.4979C49.1767 47.154 47.2255 48.8242 46.8625 51.0845C46.4995 53.3448 47.8297 55.542 49.9715 55.886Z" stroke="#2A49B7" stroke-width="0.994798"/>
<path d="M67.6629 58.7271C69.8048 59.071 71.7561 57.4008 72.1191 55.1405C72.4821 52.8802 71.1519 50.683 69.01 50.339C66.8682 49.995 64.9169 51.6652 64.5539 53.9256C64.1909 56.1859 65.5211 58.3831 67.6629 58.7271Z" stroke="#2A49B7" stroke-width="0.994798"/>
</svg>
