<svg width="112" height="104" viewBox="0 0 112 104" fill="none" xmlns="http://www.w3.org/2000/svg">
<path d="M87.4445 88.3242L2.24924 91.1071" stroke="#2A49B7" stroke-width="2" stroke-linecap="round"/>
<line x1="1.83689" y1="90.6812" x2="2.2053" y2="6.16931" stroke="#2A49B7" stroke-width="2" stroke-linecap="round"/>
<path d="M26.2753 102.417L110.606 98.2842" stroke="#2A49B7" stroke-width="2" stroke-linecap="round"/>
<line x1="86.6871" y1="2.49937" x2="87.4034" y2="87.7448" stroke="#2A49B7" stroke-width="2" stroke-linecap="round"/>
<path d="M86.4272 1.87448L2.83262 5.54027" stroke="#2A49B7" stroke-width="2" stroke-linecap="round"/>
<path d="M110.605 98.2841L110.606 11.4053" stroke="#2A49B7" stroke-width="2" stroke-linecap="round"/>
<path d="M2.3916 5.64941L26.0265 14.1454" stroke="#2A49B7" stroke-width="2" stroke-linecap="round"/>
<path d="M26.5684 14.9634L26.1276 102.363" stroke="#2A49B7" stroke-width="2" stroke-linecap="round"/>
<path d="M87.6298 88.3246L110.588 98.007" stroke="#2A49B7" stroke-width="2" stroke-linecap="round"/>
<path d="M27.0308 14.0681L110.24 11.4054" stroke="#2A49B7" stroke-width="2" stroke-linecap="round"/>
<path d="M86.6821 1.89136L110.389 11.3239" stroke="#2A49B7" stroke-width="2" stroke-linecap="round"/>
<path d="M1.92759 91.3487L25.8863 102.202" stroke="#2A49B7" stroke-width="2" stroke-linecap="round"/>
<rect x="35.7447" y="41.7539" width="46.7539" height="3.23988" rx="1.61994" transform="rotate(13.8263 35.7447 41.7539)" fill="#2A49B7" stroke="#2A49B7" stroke-width="1.24611"/>
<rect x="32.5284" y="54.822" width="46.7539" height="3.23988" rx="1.61994" transform="rotate(13.8263 32.5284 54.822)" fill="#2A49B7" stroke="#2A49B7" stroke-width="1.24611"/>
<circle cx="37.115" cy="49.5343" r="2.66667" transform="rotate(13.8263 37.115 49.5343)" stroke="#2A49B7" stroke-width="0.498442"/>
<circle cx="43.6492" cy="51.1425" r="2.66667" transform="rotate(13.8263 43.6492 51.1425)" stroke="#2A49B7" stroke-width="0.498442"/>
<circle cx="50.1829" cy="52.7506" r="2.66667" transform="rotate(13.8263 50.1829 52.7506)" stroke="#2A49B7" stroke-width="0.498442"/>
<circle cx="56.7171" cy="54.3588" r="2.66667" transform="rotate(13.8263 56.7171 54.3588)" stroke="#2A49B7" stroke-width="0.498442"/>
<circle cx="63.2508" cy="55.9667" r="2.66667" transform="rotate(13.8263 63.2508 55.9667)" stroke="#2A49B7" stroke-width="0.498442"/>
<circle cx="69.785" cy="57.5749" r="2.66667" transform="rotate(13.8263 69.785 57.5749)" stroke="#2A49B7" stroke-width="0.498442"/>
<circle cx="76.3191" cy="59.183" r="2.66667" transform="rotate(13.8263 76.3191 59.183)" stroke="#2A49B7" stroke-width="0.498442"/>
<circle cx="36.5789" cy="51.7123" r="2.66667" transform="rotate(13.8263 36.5789 51.7123)" stroke="#2A49B7" stroke-width="0.498442"/>
<circle cx="43.1131" cy="53.3205" r="2.66667" transform="rotate(13.8263 43.1131 53.3205)" stroke="#2A49B7" stroke-width="0.498442"/>
<circle cx="49.6468" cy="54.9286" r="2.66667" transform="rotate(13.8263 49.6468 54.9286)" stroke="#2A49B7" stroke-width="0.498442"/>
<circle cx="56.1809" cy="56.5368" r="2.66667" transform="rotate(13.8263 56.1809 56.5368)" stroke="#2A49B7" stroke-width="0.498442"/>
<circle cx="62.7151" cy="58.1447" r="2.66667" transform="rotate(13.8263 62.7151 58.1447)" stroke="#2A49B7" stroke-width="0.498442"/>
<circle cx="69.2488" cy="59.7528" r="2.66667" transform="rotate(13.8263 69.2488 59.7528)" stroke="#2A49B7" stroke-width="0.498442"/>
<circle cx="75.783" cy="61.361" r="2.66667" transform="rotate(13.8263 75.783 61.361)" stroke="#2A49B7" stroke-width="0.498442"/>
</svg>
